<svg width="23" height="26" viewBox="0 0 23 26" fill="none" xmlns="http://www.w3.org/2000/svg">
<path fill-rule="evenodd" clip-rule="evenodd" d="M9.04493 22.457C9.64926 23.1302 10.4251 23.5 11.2301 23.5H11.2313C12.0398 23.5 12.8191 23.1302 13.4246 22.4558C13.7489 22.0977 14.3019 22.0685 14.6601 22.3917C15.0194 22.7148 15.0486 23.269 14.7254 23.6272C13.7828 24.6737 12.5426 25.25 11.2313 25.25H11.2289C9.9211 25.2488 8.68326 24.6725 7.7441 23.626C7.42093 23.2678 7.4501 22.7137 7.80943 22.3917C8.16876 22.0673 8.72176 22.0965 9.04493 22.457ZM11.2882 0.166656C16.474 0.166656 19.9577 4.20566 19.9577 7.97749C19.9577 9.91766 20.4512 10.7402 20.975 11.6128C21.493 12.4738 22.0799 13.4515 22.0799 15.2995C21.6727 20.021 16.7435 20.406 11.2882 20.406C5.83286 20.406 0.902531 20.021 0.500015 15.3742C0.496531 13.4515 1.08336 12.4738 1.60136 11.6128L1.78423 11.305C2.23448 10.5312 2.6187 9.6894 2.6187 7.97749C2.6187 4.20566 6.10236 0.166656 11.2882 0.166656ZM11.2882 1.91666C7.2107 1.91666 4.3687 5.11099 4.3687 7.97749C4.3687 10.403 3.69553 11.5242 3.10053 12.5135C2.62336 13.308 2.24653 13.9357 2.24653 15.2995C2.44136 17.4998 3.89386 18.656 11.2882 18.656C18.6417 18.656 20.1397 17.4485 20.3334 15.2237C20.3299 13.9357 19.953 13.308 19.4759 12.5135C18.8809 11.5242 18.2077 10.403 18.2077 7.97749C18.2077 5.11099 15.3657 1.91666 11.2882 1.91666Z" fill="black" fill-opacity="0.6"/>
</svg>
