<svg width="26" height="21" viewBox="0 0 26 21" fill="none" xmlns="http://www.w3.org/2000/svg">
<path fill-rule="evenodd" clip-rule="evenodd" d="M12.8678 12.8163L12.9995 12.8164L13.2942 12.8174C15.5466 12.8322 20.6938 13.0597 20.6938 16.5485C20.6938 20.0144 15.726 20.2404 13.3293 20.2551L12.4413 20.2551C10.1889 20.2403 5.04062 20.0131 5.04062 16.5287C5.04062 13.0584 10.1889 12.8321 12.4413 12.8174L12.736 12.8164C12.7818 12.8163 12.8257 12.8163 12.8678 12.8163ZM12.8678 14.5663C10.0958 14.5663 6.79062 14.907 6.79062 16.5287C6.79062 18.1136 9.89851 18.4842 12.6144 18.5052L12.8678 18.5062C15.6398 18.5062 18.9438 18.1667 18.9438 16.5485C18.9438 14.9105 15.6398 14.5663 12.8678 14.5663ZM22.147 12.3429C24.9738 12.7664 25.5677 14.0941 25.5677 15.1336C25.5677 15.7682 25.318 16.9267 23.6497 17.5626C23.547 17.6011 23.442 17.6197 23.3382 17.6197C22.9858 17.6197 22.6533 17.4051 22.5203 17.0562C22.3477 16.6047 22.5752 16.0984 23.0267 15.9269C23.8177 15.6259 23.8177 15.2934 23.8177 15.1336C23.8177 14.6226 23.1678 14.2656 21.8868 14.0742C21.4097 14.0019 21.0795 13.5574 21.1507 13.0779C21.2218 12.5996 21.6652 12.2811 22.147 12.3429ZM4.58375 13.0779C4.65492 13.5574 4.32475 14.0019 3.84758 14.0742C2.56658 14.2656 1.91675 14.6226 1.91675 15.1336C1.91675 15.2934 1.91675 15.6247 2.70892 15.9269C3.16042 16.0984 3.38792 16.6047 3.21525 17.0562C3.08225 17.4051 2.74975 17.6197 2.39741 17.6197C2.29358 17.6197 2.18858 17.6011 2.08591 17.5626C0.416415 16.9256 0.166748 15.7671 0.166748 15.1336C0.166748 14.0952 0.760582 12.7664 3.58858 12.3429C4.07042 12.2822 4.51142 12.5996 4.58375 13.0779ZM12.8678 0.666656C15.8078 0.666656 18.1983 3.05832 18.1983 5.99716C18.1983 8.93599 15.8078 11.3277 12.8678 11.3277H12.8363C11.4129 11.323 10.0794 10.7653 9.08078 9.75732C8.07978 8.75049 7.53262 7.41349 7.5384 5.99366C7.5384 3.05832 9.92895 0.666656 12.8678 0.666656ZM12.8678 2.41666C10.8938 2.41666 9.28842 4.02316 9.28842 5.99716C9.28495 6.95382 9.65128 7.84866 10.3221 8.52416C10.993 9.19966 11.8866 9.57416 12.8386 9.57766L12.8678 10.4527V9.57766C14.8418 9.57766 16.4483 7.97232 16.4483 5.99716C16.4483 4.02316 14.8418 2.41666 12.8678 2.41666ZM20.0883 1.80941C22.1393 2.14657 23.6291 3.90124 23.6291 5.98141C23.6245 8.07557 22.06 9.87224 19.9891 10.1627C19.9483 10.1686 19.9075 10.1709 19.8678 10.1709C19.4385 10.1709 19.064 9.85474 19.0021 9.41724C18.9356 8.93774 19.2681 8.49557 19.7476 8.42907C20.961 8.25874 21.8768 7.20641 21.8791 5.97907C21.8791 4.76224 21.0065 3.73324 19.8036 3.53607C19.3276 3.45791 19.0045 3.00757 19.0826 2.53041C19.162 2.05324 19.6088 1.73357 20.0883 1.80941ZM6.65295 2.53041C6.73112 3.00757 6.40795 3.45791 5.93195 3.53607C4.72912 3.73324 3.85645 4.76224 3.85645 5.98141C3.85878 7.20641 4.77462 8.25991 5.98678 8.42907C6.46628 8.49557 6.79878 8.93774 6.73228 9.41724C6.67045 9.85474 6.29595 10.1709 5.86662 10.1709C5.82695 10.1709 5.78612 10.1686 5.74528 10.1627C3.67445 9.87224 2.11112 8.07557 2.10645 5.98374C2.10645 3.90124 3.59628 2.14657 5.64728 1.80941C6.13845 1.73241 6.57362 2.05557 6.65295 2.53041Z" fill="black" fill-opacity="0.6"/>
</svg>
